<svg width="338" height="107" viewBox="0 0 338 107" fill="none" xmlns="http://www.w3.org/2000/svg">
<path d="M5.74 97.168L7.708 95.128C8.692 96.256 9.868 97.432 11.836 97.432C13.852 97.432 14.644 96.184 14.644 95.08C14.644 91.6 6.628 92.872 6.628 87.04C6.628 83.824 9.052 81.928 12.364 81.928C13.948 81.928 15.436 82.36 17.14 83.608L15.508 86.056C14.5 85.168 13.324 84.808 12.22 84.808C10.66 84.808 9.748 85.528 9.748 86.728C9.748 90.304 17.788 88.672 17.788 94.936C17.788 98.104 15.748 100.312 11.812 100.312C9.724 100.312 7.588 99.688 5.74 97.168ZM31.033 95.272H22.345C22.681 96.664 23.809 97.648 25.513 97.648C26.545 97.648 27.649 97.264 28.321 96.376L30.337 97.984C29.305 99.448 27.481 100.312 25.537 100.312C22.105 100.312 19.465 97.744 19.465 94.408C19.465 91.168 21.745 88.384 25.369 88.384C28.729 88.384 31.105 91.12 31.105 94.336C31.105 94.648 31.081 94.984 31.033 95.272ZM22.441 93.112H28.129C27.961 91.96 26.761 91.072 25.345 91.072C23.977 91.072 22.873 91.888 22.441 93.112ZM45.1799 100H42.2279V99.256C41.3159 100 40.2359 100.312 39.0599 100.312C35.6999 100.312 33.0119 97.624 33.0119 94.336C33.0119 91.024 35.6999 88.384 39.0599 88.384C40.2119 88.384 41.2919 88.696 42.2279 89.44V88.6H45.1799V100ZM42.2279 94.336C42.2279 92.656 40.8119 91.216 39.0599 91.216C37.3319 91.216 35.9159 92.656 35.9159 94.336C35.9159 96.04 37.3319 97.48 39.0599 97.48C40.8119 97.48 42.2279 96.04 42.2279 94.336ZM51.7364 100H48.7844V88.6H51.7364V89.44C52.8404 88.624 53.9204 88.384 56.1284 88.384V91.216C52.3604 91.216 51.7364 92.272 51.7364 94.24V100ZM66.2864 96.016L68.7824 97.504C67.7264 99.184 65.8064 100.312 63.6224 100.312C60.2624 100.312 57.5744 97.624 57.5744 94.336C57.5744 91.024 60.2624 88.384 63.6224 88.384C65.7824 88.384 67.6544 89.464 68.7344 91.096L66.2144 92.56C65.6384 91.744 64.7024 91.216 63.6224 91.216C61.8944 91.216 60.4784 92.656 60.4784 94.336C60.4784 96.04 61.8944 97.48 63.6224 97.48C64.7504 97.48 65.7344 96.904 66.2864 96.016ZM81.7986 100H78.8466V93.904C78.8466 91.696 77.6706 91.216 76.4946 91.216C75.3186 91.216 74.1426 91.672 74.1426 93.856V100H71.1906V82.24H74.1426V89.44C74.7906 88.96 75.5826 88.384 77.1426 88.384C79.6386 88.384 81.7986 89.848 81.7986 93.424V100ZM86.1674 103.648V102.136C86.8634 102.016 87.7754 101.224 87.8714 100.12C87.7754 100.144 87.5834 100.144 87.5354 100.144C86.5754 100.144 85.7594 99.376 85.7594 98.32C85.7594 97.264 86.5514 96.448 87.6314 96.448C88.9274 96.448 89.5754 97.528 89.5754 99.016C89.5754 101.08 88.3274 103.576 86.1674 103.648ZM111.391 100H108.439V99.256C107.527 100 106.447 100.312 105.271 100.312C101.911 100.312 99.2228 97.624 99.2228 94.336C99.2228 91.024 101.911 88.384 105.271 88.384C106.423 88.384 107.503 88.696 108.439 89.44V88.6H111.391V100ZM108.439 94.336C108.439 92.656 107.023 91.216 105.271 91.216C103.543 91.216 102.127 92.656 102.127 94.336C102.127 96.04 103.543 97.48 105.271 97.48C107.023 97.48 108.439 96.04 108.439 94.336ZM126.203 100H123.251V99.256C122.339 100 121.259 100.312 120.083 100.312C116.723 100.312 114.035 97.624 114.035 94.336C114.035 91.024 116.723 88.384 120.083 88.384C121.235 88.384 122.315 88.696 123.251 89.44V82.24H126.203V100ZM123.251 94.336C123.251 92.656 121.835 91.216 120.083 91.216C118.355 91.216 116.939 92.656 116.939 94.336C116.939 96.04 118.355 97.48 120.083 97.48C121.835 97.48 123.251 96.04 123.251 94.336ZM141.016 100H138.064V99.256C137.152 100 136.072 100.312 134.896 100.312C131.536 100.312 128.848 97.624 128.848 94.336C128.848 91.024 131.536 88.384 134.896 88.384C136.048 88.384 137.128 88.696 138.064 89.44V82.24H141.016V100ZM138.064 94.336C138.064 92.656 136.648 91.216 134.896 91.216C133.168 91.216 131.752 92.656 131.752 94.336C131.752 96.04 133.168 97.48 134.896 97.48C136.648 97.48 138.064 96.04 138.064 94.336ZM162.297 100H159.345V99.256C158.433 100 157.353 100.312 156.177 100.312C152.817 100.312 150.129 97.624 150.129 94.336C150.129 91.024 152.817 88.384 156.177 88.384C157.329 88.384 158.409 88.696 159.345 89.44V88.6H162.297V100ZM159.345 94.336C159.345 92.656 157.929 91.216 156.177 91.216C154.449 91.216 153.033 92.656 153.033 94.336C153.033 96.04 154.449 97.48 156.177 97.48C157.929 97.48 159.345 96.04 159.345 94.336ZM176.51 100H173.558V93.904C173.558 91.696 172.382 91.216 171.206 91.216C170.03 91.216 168.854 91.672 168.854 93.856V100H165.902V88.6H168.854V89.44C169.502 88.96 170.294 88.384 171.854 88.384C174.35 88.384 176.51 89.848 176.51 93.424V100ZM191.078 100H188.126V99.256C187.214 100 186.134 100.312 184.958 100.312C181.598 100.312 178.91 97.624 178.91 94.336C178.91 91.024 181.598 88.384 184.958 88.384C186.11 88.384 187.19 88.696 188.126 89.44V82.24H191.078V100ZM188.126 94.336C188.126 92.656 186.71 91.216 184.958 91.216C183.23 91.216 181.814 92.656 181.814 94.336C181.814 96.04 183.23 97.48 184.958 97.48C186.71 97.48 188.126 96.04 188.126 94.336ZM211.76 95.272H203.072C203.408 96.664 204.536 97.648 206.24 97.648C207.272 97.648 208.376 97.264 209.048 96.376L211.064 97.984C210.032 99.448 208.208 100.312 206.264 100.312C202.832 100.312 200.192 97.744 200.192 94.408C200.192 91.168 202.472 88.384 206.096 88.384C209.456 88.384 211.832 91.12 211.832 94.336C211.832 94.648 211.808 94.984 211.76 95.272ZM203.168 93.112H208.856C208.688 91.96 207.488 91.072 206.072 91.072C204.704 91.072 203.6 91.888 203.168 93.112ZM225.672 100H222.72V99.256C221.808 100 220.728 100.312 219.552 100.312C216.192 100.312 213.504 97.624 213.504 94.336C213.504 91.024 216.192 88.384 219.552 88.384C220.704 88.384 221.784 88.696 222.72 89.44V82.24H225.672V100ZM222.72 94.336C222.72 92.656 221.304 91.216 219.552 91.216C217.824 91.216 216.408 92.656 216.408 94.336C216.408 96.04 217.824 97.48 219.552 97.48C221.304 97.48 222.72 96.04 222.72 94.336ZM232.253 100H229.301V88.6H232.253V100ZM230.789 86.704C229.733 86.704 228.917 85.888 228.917 84.832C228.917 83.776 229.733 82.984 230.789 82.984C231.845 82.984 232.637 83.776 232.637 84.832C232.637 85.888 231.845 86.704 230.789 86.704ZM242.03 97.408V100.024C242.03 100.024 241.166 100.312 239.75 100.312C237.518 100.312 236.366 98.848 236.366 96.616V91.432H234.566V88.6H236.366V84.736H239.318V88.6H242.342V91.432H239.318V95.992C239.318 96.784 239.534 97.528 240.59 97.528C241.334 97.528 242.03 97.408 242.03 97.408ZM254.776 106.072H251.824V88.6H254.776V106.072ZM253.312 86.704C252.256 86.704 251.44 85.888 251.44 84.832C251.44 83.776 252.256 82.984 253.312 82.984C254.368 82.984 255.16 83.776 255.16 84.832C255.16 85.888 254.368 86.704 253.312 86.704ZM269.617 100H266.665V99.256C265.753 100 264.673 100.312 263.497 100.312C260.137 100.312 257.449 97.624 257.449 94.336C257.449 91.024 260.137 88.384 263.497 88.384C264.649 88.384 265.729 88.696 266.665 89.44V88.6H269.617V100ZM266.665 94.336C266.665 92.656 265.249 91.216 263.497 91.216C261.769 91.216 260.353 92.656 260.353 94.336C260.353 96.04 261.769 97.48 263.497 97.48C265.249 97.48 266.665 96.04 266.665 94.336ZM276.174 100H273.222V88.6H276.174V89.44C277.278 88.624 278.358 88.384 280.566 88.384V91.216C276.798 91.216 276.174 92.272 276.174 94.24V100ZM291.228 99.76V99.256C290.316 100 289.236 100.312 288.06 100.312C284.7 100.312 282.012 97.624 282.012 94.336C282.012 91.024 284.7 88.384 288.06 88.384C289.212 88.384 290.292 88.696 291.228 89.44V88.6H294.18V99.184C294.18 105.28 290.292 106.072 288.06 106.072C285.876 106.072 283.98 104.944 282.924 103.264L285.636 102.088C286.212 102.784 287.1 103.24 288.06 103.24C289.812 103.24 291.228 102.376 291.228 99.76ZM291.228 94.336C291.228 92.656 289.812 91.216 288.06 91.216C286.332 91.216 284.916 92.656 284.916 94.336C284.916 96.04 286.332 97.48 288.06 97.48C289.812 97.48 291.228 96.04 291.228 94.336ZM308.944 94.336C308.944 97.624 306.256 100.312 302.872 100.312C299.512 100.312 296.824 97.624 296.824 94.336C296.824 91.024 299.512 88.384 302.872 88.384C306.256 88.384 308.944 91.024 308.944 94.336ZM306.04 94.336C306.04 92.656 304.624 91.216 302.872 91.216C301.144 91.216 299.728 92.656 299.728 94.336C299.728 96.04 301.144 97.48 302.872 97.48C304.624 97.48 306.04 96.04 306.04 94.336ZM322.197 100H319.245V93.904C319.245 91.696 318.069 91.216 316.893 91.216C315.717 91.216 314.541 91.672 314.541 93.856V100H311.589V88.6H314.541V89.44C315.189 88.96 315.981 88.384 317.541 88.384C320.037 88.384 322.197 89.848 322.197 93.424V100ZM328.03 100.168C326.974 100.168 326.158 99.352 326.158 98.296C326.158 97.24 326.974 96.448 328.03 96.448C329.086 96.448 329.878 97.24 329.878 98.296C329.878 99.352 329.086 100.168 328.03 100.168Z" fill="#A3A3A3"/>
<path d="M49.732 54H40.076L35.928 43.256H14.236L10.156 54H0.5L20.628 3.68H29.672L49.732 54ZM32.732 34.756L25.116 14.764L17.432 34.756H32.732Z" fill="white"/>
<path d="M89.1205 41.148L94.3565 47.404C89.6645 51.892 83.4765 54.884 76.3365 54.884C61.8525 54.884 50.0205 43.596 50.0205 28.908C50.0205 14.56 61.3085 2.796 76.2685 2.796C83.8165 2.796 90.3445 5.856 95.1045 10.752L89.5285 17.008C86.1965 13.132 81.6405 10.956 76.2685 10.956C66.4085 10.956 58.8605 19.252 58.8605 28.976C58.8605 38.836 66.6805 46.724 76.3365 46.724C81.1645 46.724 85.9925 44.344 89.1205 41.148ZM139.025 54H129.029L116.857 33.124H110.805V54H101.897V3.68H122.297C132.565 3.68 138.141 9.596 138.141 18.436C138.141 25.984 134.061 31.356 126.513 32.648L139.025 54ZM110.805 24.556H122.433C126.581 24.556 129.233 22.312 129.233 18.504C129.233 14.628 126.581 12.248 122.433 12.248H110.805V24.556ZM195.354 28.84C195.354 43.392 183.726 54.884 169.106 54.884C154.622 54.884 142.79 43.596 142.79 28.908C142.79 14.56 154.078 2.796 169.038 2.796C183.794 2.796 195.354 14.288 195.354 28.84ZM169.106 46.724C178.762 46.724 186.446 38.768 186.446 28.908C186.446 19.048 178.83 10.956 169.038 10.956C159.178 10.956 151.63 19.252 151.63 28.976C151.63 38.836 159.45 46.724 169.106 46.724ZM235.067 54H202.835V3.68H211.743V45.432H235.067V54ZM251.121 54H242.213V3.68H251.121V54ZM257.243 45.976L262.819 40.196C265.607 43.392 268.939 46.724 274.514 46.724C280.227 46.724 282.471 43.188 282.471 40.06C282.471 30.2 259.759 33.804 259.759 17.28C259.759 8.168 266.627 2.796 276.011 2.796C280.499 2.796 284.715 4.02 289.543 7.556L284.919 14.492C282.063 11.976 278.731 10.956 275.603 10.956C271.183 10.956 268.599 12.996 268.599 16.396C268.599 26.528 291.379 21.904 291.379 39.652C291.379 48.628 285.599 54.884 274.447 54.884C268.531 54.884 262.479 53.116 257.243 45.976ZM318.815 54H309.907V12.248H293.723V3.68H334.931V12.248H318.815V54Z" fill="black"/>
<path fill-rule="evenodd" clip-rule="evenodd" d="M4.65878 43.8539L8.04804 35.3807H41.9155L45.2933 43.8539H4.65878Z" fill="#FFED00"/>
<path fill-rule="evenodd" clip-rule="evenodd" d="M29.3755 3.82544H20.628L0.5 54.1454H10.156L14.236 43.4014H14.3708L17.5935 34.9014H17.432L25.116 14.9094L25.1446 14.9846L29.3755 3.82544Z" fill="#E41F1F"/>
<path fill-rule="evenodd" clip-rule="evenodd" d="M20.5 3.82544H29.2475L49.3755 54.1454H39.7195L35.6395 43.4014H35.5047L32.282 34.9014H32.4435L24.7595 14.9094L24.7309 14.9846L20.5 3.82544Z" fill="black"/>
<path fill-rule="evenodd" clip-rule="evenodd" d="M26.3287 43.8539H45.2933L41.9155 35.3807H26.3287V43.8539Z" fill="#FFED00"/>
</svg>
